<?xml version="1.0" encoding="utf-8"?>
<!-- Generator: Adobe Illustrator 23.0.3, SVG Export Plug-In . SVG Version: 6.00 Build 0)  -->
<svg version="1.1" id="Layer_1" xmlns="http://www.w3.org/2000/svg" xmlns:xlink="http://www.w3.org/1999/xlink" x="0px" y="0px" viewBox="0 0 992.13 425.2" style="enable-background:new 0 0 992.13 425.2;" xml:space="preserve">
  <style type="text/css">
	.Arched_x0020_Green{fill:url(#SVGID_1_);stroke:#FFFFFF;stroke-width:0.25;stroke-miterlimit:1;}
	.st0{fill:#00245D;}
	.st1{fill:#202E52;}
	.st2{fill:#FFFFFF;}
</style>
  <linearGradient id="SVGID_1_" gradientUnits="userSpaceOnUse" x1="70.8682" y1="637.7932" x2="71.5753" y2="637.0861">
    <stop offset="0" style="stop-color:#1EAB4B" />
    <stop offset="0.9831" style="stop-color:#19361A" />
  </linearGradient>
  <path class="st0" d="M112.75,249.66v-0.12l-0.63,0.2C112.33,249.72,112.54,249.69,112.75,249.66z" />
  <g>
    <polygon class="st1" points="299.5,350.09 306.05,364.72 308.31,372.96 321.02,375.92 322.5,371.51 327.07,374.59 327.7,372.25 
		330.68,367.07 331.79,352.99 317.48,354.34 	" />
    <path class="st1" d="M353.33,187.11c0,0-6.07,2.3-8.85,0.15c-2.77-2.16-6.44-20.07-6.44-20.07l-8.97-4.37l-3.54-2.91l-19.83-45.82
		l-5.56,1.89l-1.77-13.09l-7.7-18.48L281,106.45c0,0-5.57,38.42-8.76,38.62c-3.19,0.2-34.11-20.25-35.23-23.86
		c-1.13-3.61,11.62-22.55,11.62-22.55l-21.36-1.89l-5.05-2.32l-11.49-6.26l5.3,8.58l-12.74-0.15l-8.97,11.64
		c0,0,2.06,11.54-1.39,13.67c-3.46,2.13-8.71-2.62-8.71-2.62l-2.15-0.43l-5.94-6.69l-10.6-0.44l-4.43,10.62l-4.66,0.14l3.28,3.93
		l-12.38,4.8l1.14,15.27l-6.32-13.24l-5.81,7.43l1.52,7.56l-6.04,3.72l-0.31,0.19c-8.04-4.92-17.51-7.77-27.63-7.77
		c-29.27,0-52.99,23.73-52.99,52.99c0,19.04,10.05,35.74,25.14,45.08c0.25,0.86,0.5,1.72,0.77,2.59
		c4.71,14.42,9.7,30.24,10.48,34.79l0.01,0.03l0,0.03c0.1,0.59,0.12,0.99,0.06,1.16c-0.97,2.6-5.69,3.64-5.69,3.64l11.49,11.49
		c0,0,34.74-15.06,37.4-14.64c2.66,0.41,5.16,5.48,5.16,5.48s61.23-23.59,69.1-21.82c7.86,1.77,29.55,27.2,29.55,27.2l5.68,0.43
		l14.53-18.62l-5.93,20.95l5.68,1.88l2.66-8.58l3.54,5.53l-3.41,7.56l6.06-1.31l18.57,25.32l12.36,2.52l12.52-3.1l13.14,7.12h3.34
		l-0.7-2.42l9.1-8.34l15.54-3.78l15.11-41.17l2.78-2.62l8.37-62.56l-19.45-15.71L353.33,187.11z" />
    <polygon class="st1" points="409.37,259.9 425.34,259.9 425.34,222.63 457.55,222.63 457.55,209.64 425.34,209.64 425.34,185.49 
		460.02,185.49 460.02,172.37 409.37,172.37 	" />
    <path class="st1" d="M498.62,195.22c-19.09,0-32.72,12.73-32.72,33.5c0,20.39,13.9,32.6,31.69,32.6c16.1,0,32.47-10.39,32.47-33.63
		C530.06,208.47,517.46,195.22,498.62,195.22z M498.1,249.77c-9.61,0-15.71-9.22-15.71-21.43c0-10.51,4.55-21.55,15.85-21.55
		c10.91,0,15.32,11.43,15.32,21.3C513.56,240.93,507.2,249.77,498.1,249.77z" />
    <path class="st1" d="M551.2,208.6h-0.39l-0.65-11.95h-13.77c0.4,5.58,0.52,11.82,0.52,20.39v42.86h15.97v-32.86
		c0-1.69,0.14-3.38,0.4-4.81c1.43-7.28,6.75-12.08,14.29-12.08c1.95,0,3.37,0.13,4.8,0.38v-14.93c-1.3-0.27-2.2-0.39-3.76-0.39
		C561.72,195.22,554.31,199.77,551.2,208.6z" />
    <path class="st1" d="M604.17,180.42l-15.72,4.42v11.82h-8.96v11.95h8.96v29.74c0,8.31,1.56,14.15,5.07,17.79
		c2.99,3.25,7.8,5.19,13.77,5.19c4.93,0,9.21-0.77,11.55-1.68l-0.26-12.08c-1.81,0.52-3.37,0.64-6.23,0.64
		c-6.11,0-8.18-3.89-8.18-11.68V208.6h15.19v-11.95h-15.19V180.42z" />
    <path class="st1" d="M656.28,195.22c-20.26,0-30.91,16.49-30.91,34.02c0,19.35,12.07,31.96,32.6,31.96
		c9.09,0,16.62-1.69,22.07-4.03l-2.33-10.91c-4.93,1.69-10.13,2.86-17.54,2.86c-10.26,0-19.09-4.93-19.48-16.37h42.34
		c0.27-1.43,0.52-3.76,0.52-6.75C683.55,212.1,676.8,195.22,656.28,195.22z M640.7,221.59c0.65-6.49,4.81-15.45,14.68-15.45
		c10.65,0,13.24,9.61,13.11,15.45H640.7z" />
    <path class="st1" d="M719.31,222.1c-8.06-2.98-11.04-4.81-11.04-8.83c0-3.9,3.12-6.75,8.83-6.75c5.58,0,10.78,2.08,13.38,3.64
		l3.25-11.17c-3.76-2.07-9.87-3.76-16.88-3.76c-14.68,0-23.9,8.57-23.9,19.74c0,7.54,5.06,14.29,17.4,18.44
		c7.8,2.86,10.39,4.94,10.39,9.22c0,4.16-3.12,7.14-10.13,7.14c-5.72,0-12.6-2.47-16.11-4.67l-3.24,11.68
		c4.68,2.6,11.56,4.42,19.21,4.42c16.76,0,25.72-8.31,25.72-19.87C736.05,231.98,730.86,226.13,719.31,222.1z" />
    <path class="st1" d="M777.72,207.69c5.72,0,9.48,1.17,12.08,2.47l2.86-12.08c-3.64-1.56-9.62-2.85-15.46-2.85
		c-22.2,0-35.19,14.68-35.19,33.64c0,19.61,12.85,32.34,32.6,32.34c7.91,0,14.54-1.69,17.92-3.25l-2.21-11.82
		c-3.12,1.3-7.14,2.46-12.6,2.46c-10.91,0-19.35-7.4-19.35-20.39C758.24,216.65,765.51,207.69,777.72,207.69z" />
    <path class="st1" d="M859.7,196.65h-15.97v38.18c0,1.82-0.26,3.64-0.91,4.94c-1.57,4.16-5.71,8.57-12.22,8.57
		c-8.43,0-11.81-6.75-11.81-17.27v-34.42h-15.97v37.15c0,20.65,10.51,27.53,21.94,27.53c11.44,0,17.67-6.49,20.4-10.91h0.38
		l0.78,9.48h13.9c-0.27-5.2-0.52-11.43-0.52-18.97V196.65z" />
    <path class="st1" d="M927.86,226c0-13.9-6.75-30.78-27.26-30.78c-20.26,0-30.91,16.49-30.91,34.02c0,19.35,12.08,31.96,32.6,31.96
		c9.09,0,16.63-1.69,22.07-4.03l-2.33-10.91c-4.94,1.69-10.13,2.86-17.54,2.86c-10.26,0-19.09-4.93-19.47-16.37h42.34
		C927.62,231.33,927.86,228.99,927.86,226z M885.02,221.59c0.64-6.49,4.8-15.45,14.67-15.45c10.65,0,13.24,9.61,13.11,15.45H885.02z
		" />
  </g>
  <g>
    <polygon class="st2" points="236.9,181.26 211.98,232.06 186.81,181.26 182.71,181.26 172.81,250.42 183.24,250.42 188.97,208.37 
		209.85,250.42 214.05,250.42 234.66,208.72 240.42,250.42 250.95,250.42 241,181.26 	" />
    <path class="st2" d="M307.98,215.14v9.67l20.44,0.11c-0.45,2.07-1.17,4-2.13,5.73c-1.26,2.24-2.91,4.18-5.04,5.91
		c-4.29,3.49-9.42,5.19-15.69,5.2c-5.22,0-9.87-1.16-14.24-3.53c-4.34-2.37-7.64-5.52-10.1-9.64c-2.45-4.12-3.64-8.34-3.65-12.91
		c0-4.45,1.15-8.55,3.52-12.56c2.37-4,5.62-7.09,9.94-9.44c4.35-2.36,8.8-3.51,13.6-3.51c3.79,0,7.77,0.87,11.82,2.6
		c4.06,1.73,7.85,4.32,11.29,7.69l1.41,1.39l8.04-7.62l-1.57-1.49c-4.79-4.55-9.79-7.91-14.87-9.99
		c-5.09-2.08-10.58-3.14-16.36-3.14c-7.12,0-13.61,1.6-19.29,4.75c-5.7,3.16-10.24,7.6-13.51,13.21
		c-3.27,5.59-4.92,11.72-4.92,18.24c0,4.37,0.72,8.54,2.15,12.39c1.42,3.86,3.59,7.5,6.43,10.83c3.7,4.32,8.12,7.61,13.15,9.77
		c5,2.15,10.7,3.24,16.97,3.24c5.17,0,9.91-0.79,14.08-2.35c4.21-1.57,7.94-3.97,11.1-7.12c3.15-3.15,5.56-6.9,7.14-11.15
		c1.57-4.2,2.38-8.99,2.41-14.23l0.01-2.06H307.98z" />
    <path class="st2" d="M156.76,194.42c-0.04-0.79-0.1-1.58-0.18-2.37c-0.01-0.07-0.02-0.14-0.02-0.2c-0.08-0.73-0.17-1.45-0.28-2.17
		c-0.03-0.19-0.06-0.38-0.08-0.57c-0.12-0.76-0.25-1.52-0.41-2.27c-0.02-0.11-0.05-0.22-0.07-0.34c-0.14-0.66-0.29-1.32-0.46-1.98
		c-0.05-0.19-0.09-0.37-0.14-0.56c-0.19-0.73-0.39-1.45-0.61-2.16c-0.05-0.15-0.1-0.29-0.14-0.44c-0.19-0.61-0.4-1.21-0.61-1.81
		c-0.06-0.18-0.13-0.36-0.19-0.54c-0.25-0.69-0.52-1.37-0.8-2.04c-0.07-0.17-0.15-0.34-0.22-0.51c-0.24-0.55-0.49-1.1-0.74-1.65
		c-0.08-0.18-0.16-0.35-0.25-0.53c-0.31-0.64-0.64-1.28-0.98-1.91c-0.1-0.19-0.21-0.38-0.31-0.56c-0.28-0.5-0.57-1-0.86-1.49
		c-0.1-0.17-0.2-0.34-0.31-0.51c-0.36-0.59-0.74-1.18-1.13-1.76c-0.13-0.2-0.27-0.4-0.41-0.6c-0.31-0.46-0.64-0.91-0.96-1.36
		c-0.12-0.16-0.23-0.33-0.36-0.49c-0.41-0.55-0.83-1.08-1.26-1.61c-0.17-0.2-0.34-0.41-0.5-0.61c-0.35-0.42-0.71-0.83-1.07-1.23
		c-0.16-0.18-0.32-0.36-0.48-0.54c-0.42-0.46-0.86-0.92-1.3-1.36c-0.2-0.2-0.4-0.4-0.6-0.6c-0.39-0.38-0.78-0.76-1.18-1.13
		c-0.23-0.21-0.45-0.42-0.68-0.62c-0.41-0.36-0.82-0.72-1.23-1.07c-0.22-0.19-0.45-0.38-0.68-0.56c-0.44-0.36-0.89-0.71-1.34-1.06
		c-0.26-0.19-0.51-0.38-0.77-0.57c-0.4-0.29-0.81-0.58-1.22-0.87c-0.25-0.17-0.49-0.34-0.74-0.5c-0.54-0.36-1.08-0.71-1.63-1.05
		c-0.01-0.01-0.02-0.01-0.03-0.02c0.02,0.31,0.04,0.62,0.05,0.94c0.33,6.12-0.69,14.27-7.01,19.78c-1.81,1.58-4.05,2.95-6.83,3.99
		l-0.04,0.02c-2.88,1.07-5.85,2.13-8.83,3.24c-5.86,2.18-11.74,4.56-17.04,7.58c-8.95,5.1-16.19,12.05-18.73,23.01
		c-1.05,4.54-1.31,9.75-0.53,15.82c0.59,4.62,1.56,9.02,2.78,13.49c0.16,0.58,0.32,1.16,0.49,1.74c0.06,0.23,0.14,0.46,0.2,0.68
		c0,0,0.01,0,0.01,0.01c0.37,0.23,0.75,0.45,1.13,0.68c0.25,0.15,0.5,0.29,0.75,0.43c0.37,0.21,0.75,0.42,1.12,0.62
		c0.32,0.17,0.64,0.33,0.96,0.49c0.56,0.28,1.13,0.56,1.7,0.82c0.33,0.15,0.67,0.31,1,0.45c0.34,0.15,0.69,0.3,1.03,0.44
		c0.41,0.17,0.83,0.33,1.25,0.49c0.41,0.16,0.82,0.31,1.23,0.45c0.5,0.18,1.01,0.35,1.52,0.51c0.29,0.09,0.59,0.18,0.89,0.27
		c0.5,0.15,0.99,0.29,1.49,0.42c0.23,0.06,0.47,0.13,0.7,0.19c0.71,0.18,1.43,0.34,2.15,0.5c0.23,0.05,0.45,0.09,0.68,0.13
		c0.58,0.11,1.16,0.22,1.75,0.31c0.21,0.03,0.42,0.07,0.64,0.1c0.77,0.11,1.55,0.21,2.33,0.3c0.13,0.01,0.27,0.02,0.4,0.04
		c0.68,0.07,1.37,0.12,2.05,0.16c0.2,0.01,0.41,0.02,0.61,0.03c0.81,0.04,1.63,0.06,2.45,0.06c0.59,0,1.18-0.03,1.77-0.04
		c2.3-0.1,4.71-0.36,6.36-0.58l-0.02-68.18h38.99v11.29h-26.87v16.51h23.05v11.4h-22.96l-0.06,25.56
		c7.75-3.21,14.57-8.21,19.96-14.47c0.05-0.06,0.11-0.12,0.16-0.18c0.36-0.42,0.71-0.85,1.06-1.29c0.1-0.13,0.2-0.25,0.3-0.38
		c1.01-1.29,1.96-2.62,2.84-4c0.14-0.22,0.28-0.43,0.42-0.65c0.23-0.38,0.46-0.76,0.69-1.14c0.16-0.28,0.32-0.55,0.48-0.83
		c0.2-0.36,0.41-0.72,0.61-1.09c0.23-0.42,0.44-0.85,0.66-1.28c0.23-0.46,0.45-0.93,0.67-1.4c0.19-0.4,0.37-0.8,0.55-1.21
		c0.14-0.32,0.27-0.64,0.4-0.96c0.17-0.42,0.34-0.84,0.5-1.26c0.11-0.29,0.23-0.59,0.33-0.89c0.25-0.69,0.49-1.38,0.71-2.08
		c0.06-0.18,0.1-0.36,0.16-0.53c0.17-0.58,0.34-1.15,0.49-1.74c0.07-0.27,0.14-0.54,0.21-0.82c0.13-0.53,0.25-1.05,0.37-1.58
		c0.05-0.25,0.11-0.51,0.16-0.76c0.15-0.77,0.29-1.54,0.41-2.31c0.01-0.07,0.02-0.15,0.03-0.22c0.11-0.72,0.2-1.45,0.28-2.17
		c0.03-0.25,0.05-0.5,0.07-0.75c0.05-0.59,0.1-1.18,0.13-1.77c0.01-0.24,0.03-0.49,0.04-0.73c0.04-0.82,0.06-1.63,0.06-2.46
		c0,0,0,0,0,0c0-0.81-0.03-1.62-0.06-2.43C156.78,194.81,156.77,194.62,156.76,194.42z" />
  </g>
</svg>